<?xml version="1.0" encoding="utf-8"?>
<!-- Generator: Adobe Illustrator 27.7.0, SVG Export Plug-In . SVG Version: 6.00 Build 0)  -->
<svg version="1.1" id="Layer_1" xmlns="http://www.w3.org/2000/svg" xmlns:xlink="http://www.w3.org/1999/xlink" x="0px" y="0px"
	 viewBox="0 0 174 174" style="enable-background:new 0 0 174 174;" xml:space="preserve">
<style type="text/css">
	.st0{display:none;}
	.st1{fill:url(#SVGID_1_);}
	.st2{fill:url(#SVGID_00000059995691879749736250000004739628621089961089_);}
	.st3{fill:url(#SVGID_00000009554181873385091810000013934132388295484576_);}
</style>
<g id="Layer_2_00000116221594677851762100000011756130410274990516_" class="st0">
</g>
<g id="Montserrat" class="st0">
</g>
<g>
	
		<linearGradient id="SVGID_1_" gradientUnits="userSpaceOnUse" x1="92.0823" y1="4145.8315" x2="54.0883" y2="4107.8374" gradientTransform="matrix(1 0 0 1 0 -4077.9995)">
		<stop  offset="0" style="stop-color:#008E96"/>
		<stop  offset="1" style="stop-color:#B6D000"/>
	</linearGradient>
	<path class="st1" d="M73.1,75.7c14.8,0,26.9-12.1,26.9-26.9S88,22,73.1,22c-14.8,0-26.9,12.1-26.9,26.9S58.3,75.7,73.1,75.7z
		 M59.7,48.9c0-7.4,6-13.5,13.5-13.5c7.4,0,13.5,6,13.5,13.5s-6,13.5-13.5,13.5C65.7,62.3,59.7,56.3,59.7,48.9z"/>
	
		<linearGradient id="SVGID_00000098911314067118542800000001788171794688696209_" gradientUnits="userSpaceOnUse" x1="111.4344" y1="4222.0835" x2="73.4404" y2="4184.0898" gradientTransform="matrix(1 0 0 1 0 -4077.9995)">
		<stop  offset="0" style="stop-color:#008E96"/>
		<stop  offset="1" style="stop-color:#B6D000"/>
	</linearGradient>
	<path style="fill:url(#SVGID_00000098911314067118542800000001788171794688696209_);" d="M92.5,152c14.8,0,26.9-12.1,26.9-26.9
		s-12-26.8-26.9-26.8c-14.8,0-26.9,12.1-26.9,26.9S77.7,152,92.5,152z M79.1,125.2c0-7.4,6-13.5,13.5-13.5c7.4,0,13.5,6,13.5,13.5
		s-6,13.5-13.5,13.5C85.1,138.6,79.1,132.6,79.1,125.2z"/>
	
		<linearGradient id="SVGID_00000178188259248627661610000002143084318030428323_" gradientUnits="userSpaceOnUse" x1="114.825" y1="4191.4805" x2="59.1375" y2="4135.793" gradientTransform="matrix(1 0 0 1 0 -4077.9995)">
		<stop  offset="0" style="stop-color:#008E96"/>
		<stop  offset="1" style="stop-color:#B6D000"/>
	</linearGradient>
	<path style="fill:url(#SVGID_00000178188259248627661610000002143084318030428323_);" d="M125.7,42.2h-13.8c-3.7,0-6.7,3-6.7,6.7
		s3,6.7,6.7,6.7h13.8c6.5,0,11.7,5.3,11.7,11.7S132.1,79,125.7,79H48.4c-13.9,0-25.1,11.3-25.1,25.1s11.3,25.1,25.1,25.1h6.9
		c3.7,0,6.7-3,6.7-6.7s-3-6.7-6.7-6.7h-6.9c-6.5,0-11.7-5.3-11.7-11.7c0-6.5,5.3-11.7,11.7-11.7h77.2c13.9,0,25.1-11.3,25.1-25.1
		C150.8,53.4,139.5,42.2,125.7,42.2z"/>
</g>
</svg>
